<svg width="28" height="36" viewBox="0 0 28 36" fill="none" xmlns="http://www.w3.org/2000/svg">
<path d="M1.75 0H26.25C26.7141 0 27.1592 0.18373 27.4874 0.51077C27.8156 0.837811 28 1.28137 28 1.74388V35.127C28.0002 35.2829 27.9584 35.436 27.8791 35.5704C27.7997 35.7047 27.6856 35.8154 27.5488 35.8909C27.4119 35.9664 27.2572 36.004 27.1008 35.9997C26.9444 35.9953 26.792 35.9493 26.6595 35.8664L14 27.9544L1.3405 35.8646C1.20814 35.9475 1.05593 35.9935 0.899678 35.9979C0.743429 36.0023 0.588851 35.9649 0.452016 35.8896C0.315182 35.8143 0.201087 35.7039 0.121595 35.5697C0.0421029 35.4356 0.000116324 35.2827 0 35.127V1.74388C0 1.28137 0.184375 0.837811 0.512563 0.51077C0.840752 0.18373 1.28587 0 1.75 0Z" fill="#383838" fill-opacity="0.85"/>
<path d="M14 9V19M19 14H9" stroke="#F2F2F2" stroke-width="1.5" stroke-linecap="round"/>
</svg>
