<svg width="28" height="36" viewBox="0 0 28 36" fill="none" xmlns="http://www.w3.org/2000/svg">
<path d="M1.75 0H26.25C26.7141 0 27.1593 0.18373 27.4874 0.51077C27.8156 0.837811 28 1.28137 28 1.74388V35.127C28.0002 35.2829 27.9584 35.436 27.8791 35.5704C27.7997 35.7047 27.6856 35.8154 27.5488 35.8909C27.4119 35.9664 27.2572 36.004 27.1008 35.9997C26.9444 35.9953 26.792 35.9493 26.6595 35.8664L14 27.9544L1.3405 35.8646C1.20814 35.9475 1.05593 35.9935 0.899678 35.9979C0.743429 36.0023 0.588851 35.9649 0.452016 35.8896C0.315182 35.8143 0.201087 35.7039 0.121595 35.5697C0.0421029 35.4356 0.000116324 35.2827 0 35.127V1.74388C0 1.28137 0.184375 0.837811 0.512563 0.51077C0.840752 0.18373 1.28587 0 1.75 0Z" fill="#FF9900"/>
<path d="M21.5306 10.0306L13.5306 18.0306C13.461 18.1005 13.3782 18.156 13.287 18.1939C13.1958 18.2317 13.0981 18.2512 12.9994 18.2512C12.9007 18.2512 12.8029 18.2317 12.7118 18.1939C12.6206 18.156 12.5378 18.1005 12.4681 18.0306L8.96813 14.5306C8.89836 14.4609 8.84302 14.378 8.80527 14.2869C8.76751 14.1957 8.74808 14.098 8.74808 13.9994C8.74808 13.9007 8.76751 13.803 8.80527 13.7119C8.84302 13.6207 8.89836 13.5379 8.96813 13.4681C9.03789 13.3984 9.12072 13.343 9.21187 13.3053C9.30302 13.2675 9.40072 13.2481 9.49938 13.2481C9.59804 13.2481 9.69574 13.2675 9.78689 13.3053C9.87804 13.343 9.96086 13.3984 10.0306 13.4681L13 16.4375L20.4694 8.96938C20.6103 8.82848 20.8014 8.74933 21.0006 8.74933C21.1999 8.74933 21.391 8.82848 21.5319 8.96938C21.6728 9.11028 21.7519 9.30137 21.7519 9.50063C21.7519 9.69989 21.6728 9.89098 21.5319 10.0319L21.5306 10.0306Z" fill="#171717"/>
</svg>
